<mxfile host="65bd71144e">
    <diagram id="ytZsdIZ77aCjLGpFkqiG" name="Demo">
        <mxGraphModel dx="2820" dy="2472" grid="1" gridSize="10" guides="1" tooltips="1" connect="1" arrows="1" fold="1" page="1" pageScale="1" pageWidth="1654" pageHeight="1169" background="#FFFFFF" math="0" shadow="0">
            <root>
                <mxCell id="0"/>
                <mxCell id="1" parent="0"/>
                <mxCell id="3" value="&lt;br&gt;&lt;br&gt;&lt;br&gt;&lt;br&gt;&lt;br&gt;&lt;br&gt;&lt;br&gt;&lt;br&gt;&lt;br&gt;&lt;br&gt;&lt;br&gt;&lt;br&gt;&lt;br&gt;&lt;br&gt;&lt;br&gt;&lt;br&gt;&lt;br&gt;Azure" style="rounded=1;whiteSpace=wrap;html=1;fillColor=#dae8fc;strokeColor=#6c8ebf;labelPosition=center;verticalLabelPosition=middle;align=center;verticalAlign=middle;fontSize=30;fontStyle=1" vertex="1" parent="1">
                    <mxGeometry x="610" y="50" width="950" height="680" as="geometry"/>
                </mxCell>
                <mxCell id="2" value="&lt;br&gt;&lt;br&gt;&lt;br&gt;&lt;br&gt;&lt;br&gt;&lt;br&gt;&lt;br&gt;Management Cluster&lt;br style=&quot;font-size: 30px&quot;&gt;(Docker)" style="rounded=1;whiteSpace=wrap;html=1;fillColor=#e1d5e7;strokeColor=#9673a6;labelPosition=center;verticalLabelPosition=middle;align=center;verticalAlign=middle;fontSize=30;fontStyle=1" vertex="1" parent="1">
                    <mxGeometry x="1100" y="800" width="460" height="350" as="geometry"/>
                </mxCell>
                <mxCell id="4" value="&lt;br style=&quot;font-size: 30px;&quot;&gt;&lt;br style=&quot;font-size: 30px;&quot;&gt;&lt;br style=&quot;font-size: 30px;&quot;&gt;&lt;br style=&quot;font-size: 30px;&quot;&gt;&lt;br style=&quot;font-size: 30px;&quot;&gt;&lt;br style=&quot;font-size: 30px;&quot;&gt;Workload Cluster" style="rounded=1;whiteSpace=wrap;html=1;fillColor=#ffe6cc;strokeColor=#d79b00;labelPosition=center;verticalLabelPosition=middle;align=center;verticalAlign=middle;fontSize=30;fontStyle=1" vertex="1" parent="1">
                    <mxGeometry x="703.4" y="150" width="296.6" height="290" as="geometry"/>
                </mxCell>
                <mxCell id="6" value="App" style="ellipse;whiteSpace=wrap;html=1;aspect=fixed;fillColor=#f8cecc;strokeColor=#b85450;fontSize=30;fontStyle=1" vertex="1" parent="1">
                    <mxGeometry x="766.7" y="190" width="170" height="170" as="geometry"/>
                </mxCell>
                <mxCell id="7" value="GitHub" style="verticalLabelPosition=bottom;html=1;verticalAlign=top;align=center;strokeColor=none;fillColor=#00BEF2;shape=mxgraph.azure.github_code;pointerEvents=1;fontSize=30;fontStyle=1" vertex="1" parent="1">
                    <mxGeometry x="555" y="910" width="130" height="130" as="geometry"/>
                </mxCell>
                <mxCell id="8" value="" style="verticalLabelPosition=bottom;verticalAlign=top;html=1;shape=mxgraph.infographic.cylinder;fillColor=#10739E;strokeColor=none;fontSize=30;direction=south;fontStyle=1" vertex="1" parent="1">
                    <mxGeometry x="450" y="1090" width="340" height="60" as="geometry"/>
                </mxCell>
                <mxCell id="11" value="&lt;br&gt;&lt;br&gt;&lt;br&gt;&lt;br&gt;&lt;br&gt;&lt;br&gt;&lt;br&gt;&lt;br&gt;&lt;br&gt;&lt;br&gt;&lt;br&gt;&lt;br&gt;&lt;br&gt;&lt;br&gt;&lt;br&gt;&lt;br&gt;&lt;br&gt;Docker" style="rounded=1;whiteSpace=wrap;html=1;fillColor=#d5e8d4;strokeColor=#82b366;labelPosition=center;verticalLabelPosition=middle;align=center;verticalAlign=middle;fontSize=30;fontStyle=1" vertex="1" parent="1">
                    <mxGeometry x="80" y="50" width="440" height="680" as="geometry"/>
                </mxCell>
                <mxCell id="10" value="Developer" style="verticalLabelPosition=bottom;html=1;verticalAlign=top;align=center;strokeColor=none;fillColor=#00BEF2;shape=mxgraph.azure.user;fontSize=30;fontStyle=1" vertex="1" parent="1">
                    <mxGeometry x="68" y="934" width="150" height="150" as="geometry"/>
                </mxCell>
                <mxCell id="12" value="&lt;br style=&quot;font-size: 30px;&quot;&gt;&lt;br style=&quot;font-size: 30px;&quot;&gt;&lt;br style=&quot;font-size: 30px;&quot;&gt;&lt;br style=&quot;font-size: 30px;&quot;&gt;&lt;br style=&quot;font-size: 30px;&quot;&gt;&lt;br style=&quot;font-size: 30px;&quot;&gt;Workload Cluster" style="rounded=1;whiteSpace=wrap;html=1;fillColor=#ffe6cc;strokeColor=#d79b00;labelPosition=center;verticalLabelPosition=middle;align=center;verticalAlign=middle;fontSize=30;fontStyle=1" vertex="1" parent="1">
                    <mxGeometry x="100" y="150" width="390" height="290" as="geometry"/>
                </mxCell>
                <mxCell id="13" value="App" style="ellipse;whiteSpace=wrap;html=1;aspect=fixed;fillColor=#f8cecc;strokeColor=#b85450;fontSize=30;fontStyle=1" vertex="1" parent="1">
                    <mxGeometry x="210" y="190" width="170" height="170" as="geometry"/>
                </mxCell>
                <mxCell id="14" value="Config" style="sketch=0;points=[[0,0,0],[0.25,0,0],[0.5,0,0],[0.75,0,0],[1,0,0],[0,1,0],[0.25,1,0],[0.5,1,0],[0.75,1,0],[1,1,0],[0,0.25,0],[0,0.5,0],[0,0.75,0],[1,0.25,0],[1,0.5,0],[1,0.75,0]];points=[[0,0,0],[0.25,0,0],[0.5,0,0],[0.75,0,0],[1,0,0],[0,1,0],[0.25,1,0],[0.5,1,0],[0.75,1,0],[1,1,0],[0,0.25,0],[0,0.5,0],[0,0.75,0],[1,0.25,0],[1,0.5,0],[1,0.75,0]];outlineConnect=0;fontColor=#232F3E;gradientColor=#F34482;gradientDirection=north;fillColor=#BC1356;strokeColor=#ffffff;dashed=0;verticalLabelPosition=bottom;verticalAlign=top;align=center;html=1;fontSize=30;fontStyle=0;aspect=fixed;shape=mxgraph.aws4.resourceIcon;resIcon=mxgraph.aws4.app_config;labelBackgroundColor=none;" vertex="1" parent="1">
                    <mxGeometry x="180" y="462" width="78" height="78" as="geometry"/>
                </mxCell>
                <mxCell id="15" value="Secret" style="sketch=0;aspect=fixed;html=1;points=[];align=center;image;fontSize=30;image=img/lib/mscae/Key_Vaults.svg;labelBackgroundColor=none;fontStyle=0" vertex="1" parent="1">
                    <mxGeometry x="890" y="478" width="76.8" height="80" as="geometry"/>
                </mxCell>
                <mxCell id="16" value="" style="verticalLabelPosition=bottom;html=1;verticalAlign=top;align=center;strokeColor=none;fillColor=#00BEF2;shape=mxgraph.azure.azure_load_balancer;fontSize=30;fontStyle=1" vertex="1" parent="1">
                    <mxGeometry x="1270" y="70" width="120" height="70" as="geometry"/>
                </mxCell>
                <mxCell id="18" value="Secret" style="sketch=0;aspect=fixed;html=1;points=[];align=center;image;fontSize=30;image=img/lib/mscae/Key_Vaults.svg;labelBackgroundColor=none;fontStyle=0" vertex="1" parent="1">
                    <mxGeometry x="339.99999999999994" y="460" width="76.8" height="80" as="geometry"/>
                </mxCell>
                <mxCell id="19" value="Config" style="sketch=0;points=[[0,0,0],[0.25,0,0],[0.5,0,0],[0.75,0,0],[1,0,0],[0,1,0],[0.25,1,0],[0.5,1,0],[0.75,1,0],[1,1,0],[0,0.25,0],[0,0.5,0],[0,0.75,0],[1,0.25,0],[1,0.5,0],[1,0.75,0]];points=[[0,0,0],[0.25,0,0],[0.5,0,0],[0.75,0,0],[1,0,0],[0,1,0],[0.25,1,0],[0.5,1,0],[0.75,1,0],[1,1,0],[0,0.25,0],[0,0.5,0],[0,0.75,0],[1,0.25,0],[1,0.5,0],[1,0.75,0]];outlineConnect=0;fontColor=#232F3E;gradientColor=#F34482;gradientDirection=north;fillColor=#BC1356;strokeColor=#ffffff;dashed=0;verticalLabelPosition=bottom;verticalAlign=top;align=center;html=1;fontSize=30;fontStyle=0;aspect=fixed;shape=mxgraph.aws4.resourceIcon;resIcon=mxgraph.aws4.app_config;labelBackgroundColor=none;" vertex="1" parent="1">
                    <mxGeometry x="740" y="480" width="78" height="78" as="geometry"/>
                </mxCell>
                <mxCell id="20" value="" style="endArrow=classic;html=1;fontSize=30;entryX=0.5;entryY=1;entryDx=0;entryDy=0;rounded=0;strokeWidth=3;fontStyle=1" edge="1" parent="1" target="11">
                    <mxGeometry width="50" height="50" relative="1" as="geometry">
                        <mxPoint x="1320" y="780" as="sourcePoint"/>
                        <mxPoint x="1050" y="810" as="targetPoint"/>
                        <Array as="points">
                            <mxPoint x="300" y="780"/>
                        </Array>
                    </mxGeometry>
                </mxCell>
                <mxCell id="21" value="" style="endArrow=classic;html=1;fontSize=30;entryX=0.5;entryY=1;entryDx=0;entryDy=0;exitX=0.477;exitY=0.002;exitDx=0;exitDy=0;exitPerimeter=0;rounded=0;strokeWidth=3;fontStyle=1" edge="1" parent="1" source="2" target="3">
                    <mxGeometry width="50" height="50" relative="1" as="geometry">
                        <mxPoint x="940" y="890" as="sourcePoint"/>
                        <mxPoint x="990" y="840" as="targetPoint"/>
                        <Array as="points">
                            <mxPoint x="1319" y="750"/>
                            <mxPoint x="1085" y="750"/>
                        </Array>
                    </mxGeometry>
                </mxCell>
                <mxCell id="23" value="" style="endArrow=classic;html=1;rounded=0;fontSize=30;entryX=0;entryY=0.5;entryDx=0;entryDy=0;entryPerimeter=0;exitX=0.84;exitY=0.28;exitDx=0;exitDy=0;exitPerimeter=0;strokeWidth=3;fontStyle=1;fillColor=#f8cecc;strokeColor=#b85450;" edge="1" parent="1" source="10" target="7">
                    <mxGeometry width="50" height="50" relative="1" as="geometry">
                        <mxPoint x="220" y="1000" as="sourcePoint"/>
                        <mxPoint x="430" y="910" as="targetPoint"/>
                    </mxGeometry>
                </mxCell>
                <mxCell id="25" value="" style="aspect=fixed;html=1;points=[];align=center;image;fontSize=12;image=img/lib/azure2/general/Branch.svg;labelBackgroundColor=none;fontStyle=1" vertex="1" parent="1">
                    <mxGeometry x="360" y="1084" width="72" height="72" as="geometry"/>
                </mxCell>
                <mxCell id="26" value="" style="aspect=fixed;html=1;points=[];align=center;image;fontSize=12;image=img/lib/azure2/general/Branch.svg;labelBackgroundColor=none;fontStyle=1" vertex="1" parent="1">
                    <mxGeometry x="810" y="1078" width="72" height="72" as="geometry"/>
                </mxCell>
                <mxCell id="28" value="" style="endArrow=classic;html=1;rounded=0;fontSize=30;strokeWidth=3;exitX=0;exitY=0.5;exitDx=0;exitDy=0;fontStyle=1" edge="1" parent="1" source="2">
                    <mxGeometry width="50" height="50" relative="1" as="geometry">
                        <mxPoint x="870" y="960" as="sourcePoint"/>
                        <mxPoint x="880" y="1114" as="targetPoint"/>
                        <Array as="points">
                            <mxPoint x="1000" y="975"/>
                            <mxPoint x="1000" y="1114"/>
                        </Array>
                    </mxGeometry>
                </mxCell>
                <mxCell id="29" value="Docker" style="rounded=1;whiteSpace=wrap;html=1;labelBackgroundColor=none;fontSize=30;fillColor=#d5e8d4;strokeColor=#82b366;fontStyle=1" vertex="1" parent="1">
                    <mxGeometry x="1160" y="880" width="120" height="100" as="geometry"/>
                </mxCell>
                <mxCell id="31" value="Azure" style="rounded=1;whiteSpace=wrap;html=1;labelBackgroundColor=none;fontSize=30;fillColor=#dae8fc;strokeColor=#6c8ebf;fontStyle=1" vertex="1" parent="1">
                    <mxGeometry x="1380" y="880" width="120" height="100" as="geometry"/>
                </mxCell>
                <mxCell id="32" value="&lt;br style=&quot;font-size: 30px;&quot;&gt;&lt;br style=&quot;font-size: 30px;&quot;&gt;&lt;br style=&quot;font-size: 30px;&quot;&gt;&lt;br style=&quot;font-size: 30px;&quot;&gt;&lt;br style=&quot;font-size: 30px;&quot;&gt;&lt;br style=&quot;font-size: 30px;&quot;&gt;Workload Cluster" style="rounded=1;whiteSpace=wrap;html=1;fillColor=#f5f5f5;strokeColor=#666666;labelPosition=center;verticalLabelPosition=middle;align=center;verticalAlign=middle;fontSize=30;fontStyle=1;dashed=1;fontColor=#333333;" vertex="1" parent="1">
                    <mxGeometry x="1181.7" y="150" width="296.6" height="290" as="geometry"/>
                </mxCell>
                <mxCell id="33" value="App" style="ellipse;whiteSpace=wrap;html=1;aspect=fixed;fillColor=#f8cecc;strokeColor=#b85450;fontSize=30;fontStyle=1" vertex="1" parent="1">
                    <mxGeometry x="1245" y="190" width="170" height="170" as="geometry"/>
                </mxCell>
                <mxCell id="34" value="Secret" style="sketch=0;aspect=fixed;html=1;points=[];align=center;image;fontSize=30;image=img/lib/mscae/Key_Vaults.svg;labelBackgroundColor=none;fontStyle=0" vertex="1" parent="1">
                    <mxGeometry x="1366.6" y="470" width="76.8" height="80" as="geometry"/>
                </mxCell>
                <mxCell id="35" value="Config" style="sketch=0;points=[[0,0,0],[0.25,0,0],[0.5,0,0],[0.75,0,0],[1,0,0],[0,1,0],[0.25,1,0],[0.5,1,0],[0.75,1,0],[1,1,0],[0,0.25,0],[0,0.5,0],[0,0.75,0],[1,0.25,0],[1,0.5,0],[1,0.75,0]];points=[[0,0,0],[0.25,0,0],[0.5,0,0],[0.75,0,0],[1,0,0],[0,1,0],[0.25,1,0],[0.5,1,0],[0.75,1,0],[1,1,0],[0,0.25,0],[0,0.5,0],[0,0.75,0],[1,0.25,0],[1,0.5,0],[1,0.75,0]];outlineConnect=0;fontColor=#232F3E;gradientColor=#F34482;gradientDirection=north;fillColor=#BC1356;strokeColor=#ffffff;dashed=0;verticalLabelPosition=bottom;verticalAlign=top;align=center;html=1;fontSize=30;fontStyle=0;aspect=fixed;shape=mxgraph.aws4.resourceIcon;resIcon=mxgraph.aws4.app_config;labelBackgroundColor=none;" vertex="1" parent="1">
                    <mxGeometry x="1216.6" y="472" width="78" height="78" as="geometry"/>
                </mxCell>
                <mxCell id="36" value="" style="verticalLabelPosition=bottom;html=1;verticalAlign=top;align=center;strokeColor=none;fillColor=#00BEF2;shape=mxgraph.azure.azure_load_balancer;fontSize=30;fontStyle=1" vertex="1" parent="1">
                    <mxGeometry x="791.7" y="70" width="120" height="70" as="geometry"/>
                </mxCell>
                <mxCell id="37" value="DEV" style="rounded=0;whiteSpace=wrap;html=1;dashed=1;labelBackgroundColor=none;fontSize=30;fontStyle=1;fillColor=#f5f5f5;fontColor=#333333;strokeColor=#666666;" vertex="1" parent="1">
                    <mxGeometry x="95" width="410" height="40" as="geometry"/>
                </mxCell>
                <mxCell id="38" value="TEST" style="rounded=0;whiteSpace=wrap;html=1;dashed=1;labelBackgroundColor=none;fontSize=30;fontStyle=1;fillColor=#f5f5f5;fontColor=#333333;strokeColor=#666666;" vertex="1" parent="1">
                    <mxGeometry x="626" y="2.5" width="440" height="35" as="geometry"/>
                </mxCell>
                <mxCell id="39" value="PROD" style="rounded=0;whiteSpace=wrap;html=1;dashed=1;labelBackgroundColor=none;fontSize=30;fontStyle=1;fillColor=#f5f5f5;fontColor=#333333;strokeColor=#666666;" vertex="1" parent="1">
                    <mxGeometry x="1110" y="5" width="440" height="35" as="geometry"/>
                </mxCell>
                <mxCell id="40" value="" style="curved=1;endArrow=classic;html=1;rounded=0;fontSize=30;strokeWidth=3;exitX=0.5;exitY=0;exitDx=0;exitDy=0;entryX=0.25;entryY=0;entryDx=0;entryDy=0;fontStyle=1" edge="1" parent="1" source="37" target="38">
                    <mxGeometry width="50" height="50" relative="1" as="geometry">
                        <mxPoint x="290" y="-200" as="sourcePoint"/>
                        <mxPoint x="340" y="-250" as="targetPoint"/>
                        <Array as="points">
                            <mxPoint x="390" y="-150"/>
                            <mxPoint x="520" y="-210"/>
                            <mxPoint x="670" y="-110"/>
                        </Array>
                    </mxGeometry>
                </mxCell>
                <mxCell id="42" value="" style="curved=1;endArrow=classic;html=1;rounded=0;fontSize=30;strokeWidth=3;exitX=0.75;exitY=0;exitDx=0;exitDy=0;fontStyle=1" edge="1" parent="1" source="38" target="39">
                    <mxGeometry width="50" height="50" relative="1" as="geometry">
                        <mxPoint x="1330" y="-240" as="sourcePoint"/>
                        <mxPoint x="1380" y="-290" as="targetPoint"/>
                        <Array as="points">
                            <mxPoint x="1040" y="-190"/>
                            <mxPoint x="1290" y="-180"/>
                        </Array>
                    </mxGeometry>
                </mxCell>
            </root>
        </mxGraphModel>
    </diagram>
</mxfile>